<?xml version="1.0" encoding="UTF-8" standalone="no"?><svg xmlns="http://www.w3.org/2000/svg" xmlns:xlink="http://www.w3.org/1999/xlink" contentScriptType="application/ecmascript" contentStyleType="text/css" height="79px" preserveAspectRatio="none" style="width:362px;height:79px;" version="1.1" viewBox="0 0 362 79" width="362px" zoomAndPan="magnify"><defs><filter height="300%" id="fji9wgf" width="300%" x="-1" y="-1"><feGaussianBlur result="blurOut" stdDeviation="2.0"/><feColorMatrix in="blurOut" result="blurOut2" type="matrix" values="0 0 0 0 0 0 0 0 0 0 0 0 0 0 0 0 0 0 .4 0"/><feOffset dx="4.0" dy="4.0" in="blurOut2" result="blurOut3"/><feBlend in="SourceGraphic" in2="blurOut3" mode="normal"/></filter></defs><g><ellipse cx="22.3584" cy="58.6867" fill="#7F7F7F" filter="url(#fji9wgf)" rx="16.3584" ry="13.6867" style="stroke: #383838; stroke-width: 1.5;"/><text fill="#000000" font-family="sans-serif" font-size="14" lengthAdjust="spacingAndGlyphs" textLength="17" x="13.8584" y="63.4309">S1</text><ellipse cx="125.3584" cy="58.6867" fill="#7F7F7F" filter="url(#fji9wgf)" rx="16.3584" ry="13.6867" style="stroke: #383838; stroke-width: 1.5;"/><text fill="#000000" font-family="sans-serif" font-size="14" lengthAdjust="spacingAndGlyphs" textLength="17" x="116.8584" y="63.4309">S2</text><ellipse cx="236.3584" cy="21.6867" fill="#7F7F7F" filter="url(#fji9wgf)" rx="16.3584" ry="13.6867" style="stroke: #383838; stroke-width: 1.5;"/><text fill="#000000" font-family="sans-serif" font-size="14" lengthAdjust="spacingAndGlyphs" textLength="17" x="227.8584" y="26.4309">S3</text><ellipse cx="339.3584" cy="58.6867" fill="#7F7F7F" filter="url(#fji9wgf)" rx="16.3584" ry="13.6867" style="stroke: #383838; stroke-width: 1.5;"/><text fill="#000000" font-family="sans-serif" font-size="14" lengthAdjust="spacingAndGlyphs" textLength="17" x="330.8584" y="63.4309">S4</text><path d="M39.0487,58.5 C56.6179,58.5 84.4624,58.5 103.7842,58.5 " fill="none" style="stroke: #383838; stroke-width: 2.0;"/><polygon fill="#383838" points="108.9923,58.5,99.9923,54.5,103.9923,58.5,99.9923,62.5,108.9923,58.5" style="stroke: #383838; stroke-width: 1.0;"/><text fill="#000000" font-family="sans-serif" font-size="13" lengthAdjust="spacingAndGlyphs" textLength="8" x="70" y="55.0684">4</text><path d="M140.9341,53.3553 C160.567,46.811 194.5228,35.4924 216.2269,28.2577 " fill="none" style="stroke: #383838; stroke-width: 2.0;"/><polygon fill="#383838" points="221.197,26.601,211.3939,25.6523,216.4536,28.1821,213.9238,33.2418,221.197,26.601" style="stroke: #383838; stroke-width: 1.0;"/><text fill="#000000" font-family="sans-serif" font-size="13" lengthAdjust="spacingAndGlyphs" textLength="16" x="173" y="34.0684">10</text><path d="M141.9866,61.5011 C166.2683,65.5625 213.0882,72.0276 253,69.5 C275.3174,68.0867 300.6803,64.6418 318.1433,61.9806 " fill="none" style="stroke: #383838; stroke-width: 1.0; stroke-dasharray: 7.0,7.0;"/><polygon fill="#383838" points="323.2971,61.1829,313.7911,58.6067,318.3559,61.9478,315.0149,66.5126,323.2971,61.1829" style="stroke: #383838; stroke-width: 1.0;"/><text fill="#000000" font-family="sans-serif" font-size="13" lengthAdjust="spacingAndGlyphs" textLength="16" x="228.5" y="66.0684">15</text><path d="M251.698,26.9595 C269.6505,33.4084 299.5774,44.1589 319.4244,51.2884 " fill="none" style="stroke: #383838; stroke-width: 2.0;"/><polygon fill="#383838" points="324.2396,53.0181,317.1218,46.2109,319.534,51.3277,314.4172,53.7399,324.2396,53.0181" style="stroke: #383838; stroke-width: 1.0;"/><text fill="#000000" font-family="sans-serif" font-size="13" lengthAdjust="spacingAndGlyphs" textLength="8" x="284" y="35.0684">3</text></g></svg>