<?xml version="1.0" encoding="UTF-8" standalone="no"?><svg xmlns="http://www.w3.org/2000/svg" xmlns:xlink="http://www.w3.org/1999/xlink" contentScriptType="application/ecmascript" contentStyleType="text/css" height="104px" preserveAspectRatio="none" style="width:251px;height:104px;" version="1.1" viewBox="0 0 251 104" width="251px" zoomAndPan="magnify"><defs><filter height="300%" id="fbty5ms" width="300%" x="-1" y="-1"><feGaussianBlur result="blurOut" stdDeviation="2.0"/><feColorMatrix in="blurOut" result="blurOut2" type="matrix" values="0 0 0 0 0 0 0 0 0 0 0 0 0 0 0 0 0 0 .4 0"/><feOffset dx="4.0" dy="4.0" in="blurOut2" result="blurOut3"/><feBlend in="SourceGraphic" in2="blurOut3" mode="normal"/></filter></defs><g><ellipse cx="22.3584" cy="53.6867" fill="#7F7F7F" filter="url(#fbty5ms)" rx="16.3584" ry="13.6867" style="stroke: #383838; stroke-width: 1.5;"/><text fill="#000000" font-family="sans-serif" font-size="14" lengthAdjust="spacingAndGlyphs" textLength="17" x="13.8584" y="58.4309">S1</text><ellipse cx="125.3584" cy="21.6867" fill="#7F7F7F" filter="url(#fbty5ms)" rx="16.3584" ry="13.6867" style="stroke: #383838; stroke-width: 1.5;"/><text fill="#000000" font-family="sans-serif" font-size="14" lengthAdjust="spacingAndGlyphs" textLength="17" x="116.8584" y="26.4309">S2</text><ellipse cx="125.3584" cy="83.6867" fill="#F8F8F8" filter="url(#fbty5ms)" rx="16.3584" ry="13.6867" style="stroke: #383838; stroke-width: 1.5;"/><text fill="#000000" font-family="sans-serif" font-size="14" lengthAdjust="spacingAndGlyphs" textLength="17" x="116.8584" y="88.4309">S3</text><ellipse cx="228.3584" cy="53.6867" fill="#7F7F7F" filter="url(#fbty5ms)" rx="16.3584" ry="13.6867" style="stroke: #383838; stroke-width: 1.5;"/><text fill="#000000" font-family="sans-serif" font-size="14" lengthAdjust="spacingAndGlyphs" textLength="17" x="219.8584" y="58.4309">S4</text><path d="M38.1435,48.6399 C56.0942,43.063 85.5829,33.9014 105.2667,27.7861 " fill="none" style="stroke: #383838; stroke-width: 2.0;"/><polygon fill="#383838" points="110.0468,26.301,100.2653,25.1513,105.2719,27.7844,102.6388,32.7911,110.0468,26.301" style="stroke: #383838; stroke-width: 1.0;"/><text fill="#000000" font-family="sans-serif" font-size="13" lengthAdjust="spacingAndGlyphs" textLength="8" x="70" y="34.0684">4</text><path d="M33.7931,63.4573 C42.6754,70.5871 55.7294,79.5907 69,83.5 C80.1588,86.7872 93.1041,87.0288 103.7859,86.3411 " fill="none" style="stroke: #383838; stroke-width: 1.0; stroke-dasharray: 7.0,7.0;"/><polygon fill="#383838" points="108.8302,85.9381,99.5403,82.6675,103.8461,86.3362,100.1773,90.6421,108.8302,85.9381" style="stroke: #383838; stroke-width: 1.0;"/><text fill="#000000" font-family="sans-serif" font-size="13" lengthAdjust="spacingAndGlyphs" textLength="8" x="70" y="80.0684">5</text><path d="M141.1435,26.3601 C159.0942,31.937 188.5829,41.0986 208.2667,47.2139 " fill="none" style="stroke: #383838; stroke-width: 2.0;"/><polygon fill="#383838" points="213.0468,48.699,205.6388,42.2089,208.2719,47.2156,203.2653,49.8487,213.0468,48.699" style="stroke: #383838; stroke-width: 1.0;"/><text fill="#000000" font-family="sans-serif" font-size="13" lengthAdjust="spacingAndGlyphs" textLength="8" x="173" y="34.0684">4</text><path d="M142.1698,85.9381 C153.6114,87.0263 169.0152,87.3251 182,83.5 C193.4044,80.1404 204.6489,73.0186 213.2232,66.557 " fill="none" style="stroke: #383838; stroke-width: 1.0; stroke-dasharray: 7.0,7.0;"/><polygon fill="#383838" points="217.2069,63.4573,207.6475,65.8274,213.2608,66.5278,212.5603,72.1412,217.2069,63.4573" style="stroke: #383838; stroke-width: 1.0;"/><text fill="#000000" font-family="sans-serif" font-size="13" lengthAdjust="spacingAndGlyphs" textLength="8" x="173" y="80.0684">3</text></g></svg>