<?xml version="1.0" encoding="UTF-8" standalone="no"?><svg xmlns="http://www.w3.org/2000/svg" xmlns:xlink="http://www.w3.org/1999/xlink" contentScriptType="application/ecmascript" contentStyleType="text/css" height="387px" preserveAspectRatio="none" style="width:806px;height:387px;" version="1.1" viewBox="0 0 806 387" width="806px" zoomAndPan="magnify"><defs><filter height="300%" id="fxjd6k6" width="300%" x="-1" y="-1"><feGaussianBlur result="blurOut" stdDeviation="2.0"/><feColorMatrix in="blurOut" result="blurOut2" type="matrix" values="0 0 0 0 0 0 0 0 0 0 0 0 0 0 0 0 0 0 .4 0"/><feOffset dx="4.0" dy="4.0" in="blurOut2" result="blurOut3"/><feBlend in="SourceGraphic" in2="blurOut3" mode="normal"/></filter></defs><g><ellipse cx="22.3584" cy="208.6867" fill="#7F7F7F" filter="url(#fxjd6k6)" rx="16.3584" ry="13.6867" style="stroke: #383838; stroke-width: 1.5;"/><text fill="#000000" font-family="sans-serif" font-size="14" lengthAdjust="spacingAndGlyphs" textLength="17" x="13.8584" y="213.4309">S1</text><ellipse cx="125.3584" cy="175.6867" fill="#F8F8F8" filter="url(#fxjd6k6)" rx="16.3584" ry="13.6867" style="stroke: #383838; stroke-width: 1.5;"/><text fill="#000000" font-family="sans-serif" font-size="14" lengthAdjust="spacingAndGlyphs" textLength="17" x="116.8584" y="180.4309">S2</text><ellipse cx="125.3584" cy="90.6867" fill="#F8F8F8" filter="url(#fxjd6k6)" rx="16.3584" ry="13.6867" style="stroke: #383838; stroke-width: 1.5;"/><text fill="#000000" font-family="sans-serif" font-size="14" lengthAdjust="spacingAndGlyphs" textLength="17" x="116.8584" y="95.4309">S3</text><ellipse cx="125.3584" cy="237.6867" fill="#7F7F7F" filter="url(#fxjd6k6)" rx="16.3584" ry="13.6867" style="stroke: #383838; stroke-width: 1.5;"/><text fill="#000000" font-family="sans-serif" font-size="14" lengthAdjust="spacingAndGlyphs" textLength="17" x="116.8584" y="242.4309">S4</text><ellipse cx="331.3584" cy="320.6867" fill="#F8F8F8" filter="url(#fxjd6k6)" rx="16.3584" ry="13.6867" style="stroke: #383838; stroke-width: 1.5;"/><text fill="#000000" font-family="sans-serif" font-size="14" lengthAdjust="spacingAndGlyphs" textLength="17" x="322.8584" y="325.4309">S7</text><ellipse cx="228.3584" cy="50.6867" fill="#F8F8F8" filter="url(#fxjd6k6)" rx="16.3584" ry="13.6867" style="stroke: #383838; stroke-width: 1.5;"/><text fill="#000000" font-family="sans-serif" font-size="14" lengthAdjust="spacingAndGlyphs" textLength="17" x="219.8584" y="55.4309">S5</text><ellipse cx="228.3584" cy="180.6867" fill="#7F7F7F" filter="url(#fxjd6k6)" rx="16.3584" ry="13.6867" style="stroke: #383838; stroke-width: 1.5;"/><text fill="#000000" font-family="sans-serif" font-size="14" lengthAdjust="spacingAndGlyphs" textLength="17" x="219.8584" y="185.4309">S6</text><ellipse cx="331.3584" cy="96.6867" fill="#7F7F7F" filter="url(#fxjd6k6)" rx="16.3584" ry="13.6867" style="stroke: #383838; stroke-width: 1.5;"/><text fill="#000000" font-family="sans-serif" font-size="14" lengthAdjust="spacingAndGlyphs" textLength="17" x="322.8584" y="101.4309">S8</text><ellipse cx="439.3848" cy="22.659" fill="#F8F8F8" filter="url(#fxjd6k6)" rx="21.3848" ry="14.659" style="stroke: #383838; stroke-width: 1.5;"/><text fill="#000000" font-family="sans-serif" font-size="14" lengthAdjust="spacingAndGlyphs" textLength="26" x="426.3848" y="27.4031">S11</text><ellipse cx="331.3584" cy="249.6867" fill="#F8F8F8" filter="url(#fxjd6k6)" rx="16.3584" ry="13.6867" style="stroke: #383838; stroke-width: 1.5;"/><text fill="#000000" font-family="sans-serif" font-size="14" lengthAdjust="spacingAndGlyphs" textLength="17" x="322.8584" y="254.4309">S9</text><ellipse cx="439.3848" cy="115.659" fill="#7F7F7F" filter="url(#fxjd6k6)" rx="21.3848" ry="14.659" style="stroke: #383838; stroke-width: 1.5;"/><text fill="#000000" font-family="sans-serif" font-size="14" lengthAdjust="spacingAndGlyphs" textLength="26" x="426.3848" y="120.4031">S12</text><ellipse cx="439.3848" cy="335.659" fill="#F8F8F8" filter="url(#fxjd6k6)" rx="21.3848" ry="14.659" style="stroke: #383838; stroke-width: 1.5;"/><text fill="#000000" font-family="sans-serif" font-size="14" lengthAdjust="spacingAndGlyphs" textLength="26" x="426.3848" y="340.4031">S10</text><ellipse cx="439.3848" cy="241.659" fill="#F8F8F8" filter="url(#fxjd6k6)" rx="21.3848" ry="14.659" style="stroke: #383838; stroke-width: 1.5;"/><text fill="#000000" font-family="sans-serif" font-size="14" lengthAdjust="spacingAndGlyphs" textLength="26" x="426.3848" y="246.4031">S13</text><ellipse cx="552.3848" cy="324.659" fill="#F8F8F8" filter="url(#fxjd6k6)" rx="21.3848" ry="14.659" style="stroke: #383838; stroke-width: 1.5;"/><text fill="#000000" font-family="sans-serif" font-size="14" lengthAdjust="spacingAndGlyphs" textLength="26" x="539.3848" y="329.4031">S16</text><ellipse cx="665.3848" cy="365.659" fill="#F8F8F8" filter="url(#fxjd6k6)" rx="21.3848" ry="14.659" style="stroke: #383838; stroke-width: 1.5;"/><text fill="#000000" font-family="sans-serif" font-size="14" lengthAdjust="spacingAndGlyphs" textLength="26" x="652.3848" y="370.4031">S19</text><ellipse cx="665.3848" cy="61.659" fill="#F8F8F8" filter="url(#fxjd6k6)" rx="21.3848" ry="14.659" style="stroke: #383838; stroke-width: 1.5;"/><text fill="#000000" font-family="sans-serif" font-size="14" lengthAdjust="spacingAndGlyphs" textLength="26" x="652.3848" y="66.4031">S17</text><ellipse cx="552.3848" cy="171.659" fill="#F8F8F8" filter="url(#fxjd6k6)" rx="21.3848" ry="14.659" style="stroke: #383838; stroke-width: 1.5;"/><text fill="#000000" font-family="sans-serif" font-size="14" lengthAdjust="spacingAndGlyphs" textLength="26" x="539.3848" y="176.4031">S14</text><ellipse cx="552.3848" cy="107.659" fill="#7F7F7F" filter="url(#fxjd6k6)" rx="21.3848" ry="14.659" style="stroke: #383838; stroke-width: 1.5;"/><text fill="#000000" font-family="sans-serif" font-size="14" lengthAdjust="spacingAndGlyphs" textLength="26" x="539.3848" y="112.4031">S15</text><ellipse cx="665.3848" cy="213.659" fill="#7F7F7F" filter="url(#fxjd6k6)" rx="21.3848" ry="14.659" style="stroke: #383838; stroke-width: 1.5;"/><text fill="#000000" font-family="sans-serif" font-size="14" lengthAdjust="spacingAndGlyphs" textLength="26" x="652.3848" y="218.4031">S18</text><ellipse cx="778.3848" cy="213.659" fill="#7F7F7F" filter="url(#fxjd6k6)" rx="21.3848" ry="14.659" style="stroke: #383838; stroke-width: 1.5;"/><text fill="#000000" font-family="sans-serif" font-size="14" lengthAdjust="spacingAndGlyphs" textLength="26" x="765.3848" y="218.4031">S20</text><path d="M38.1435,203.488 C56.0942,197.7368 85.5829,188.289 105.2667,181.9825 " fill="none" style="stroke: #383838; stroke-width: 1.0;"/><polygon fill="#383838" points="110.0468,180.451,100.2555,179.388,105.2853,181.9767,102.6966,187.0065,110.0468,180.451" style="stroke: #383838; stroke-width: 1.0;"/><text fill="#000000" font-family="sans-serif" font-size="13" lengthAdjust="spacingAndGlyphs" textLength="8" x="70" y="187.0684">3</text><path d="M32.3761,197.1857 C51.0345,175.81 91.465,129.4916 112.3785,105.5324 " fill="none" style="stroke: #383838; stroke-width: 1.0;"/><polygon fill="#383838" points="115.8042,101.6078,106.8723,105.7575,112.5161,105.3746,112.8991,111.0185,115.8042,101.6078" style="stroke: #383838; stroke-width: 1.0;"/><text fill="#000000" font-family="sans-serif" font-size="13" lengthAdjust="spacingAndGlyphs" textLength="8" x="70" y="142.0684">2</text><path d="M34.2238,218.4186 C43.1251,225.2658 56.0115,233.7818 69,237.5 C80.1837,240.7016 93.1308,240.9369 103.8074,240.2671 " fill="none" style="stroke: #383838; stroke-width: 2.0;"/><polygon fill="#383838" points="108.8486,239.8746,99.5652,236.5856,103.8637,240.2629,100.1864,244.5614,108.8486,239.8746" style="stroke: #383838; stroke-width: 1.0;"/><text fill="#000000" font-family="sans-serif" font-size="13" lengthAdjust="spacingAndGlyphs" textLength="8" x="70" y="234.0684">1</text><path d="M33.4991,218.8056 C49.0077,232.6681 78.7958,256.9162 109,268.5 C180.072,295.7572 269.606,311.368 309.9957,317.4778 " fill="none" style="stroke: #383838; stroke-width: 1.0;"/><polygon fill="#383838" points="315.1326,318.2435,306.8207,312.9603,310.1872,317.5063,305.6412,320.8729,315.1326,318.2435" style="stroke: #383838; stroke-width: 1.0;"/><text fill="#000000" font-family="sans-serif" font-size="13" lengthAdjust="spacingAndGlyphs" textLength="8" x="173" y="285.0684">5</text><path d="M138.7751,167.0423 C151.0299,158.7767 169.2134,145.3052 182,130.5 C198.7004,111.1631 212.598,84.9745 220.7293,67.9116 " fill="none" style="stroke: #383838; stroke-width: 1.0;"/><polygon fill="#383838" points="222.8673,63.3543,215.4234,69.8032,220.7436,67.8809,222.6659,73.2011,222.8673,63.3543" style="stroke: #383838; stroke-width: 1.0;"/><text fill="#000000" font-family="sans-serif" font-size="13" lengthAdjust="spacingAndGlyphs" textLength="8" x="173" y="127.0684">2</text><path d="M141.7672,178.9981 C150.6533,180.7318 161.8793,182.6358 172,183.5 C183.607,184.4912 196.5853,183.9202 207.1733,183.0217 " fill="none" style="stroke: #383838; stroke-width: 1.0;"/><polygon fill="#383838" points="212.1626,182.5597,202.8321,179.4065,207.1839,183.0207,203.5697,187.3725,212.1626,182.5597" style="stroke: #383838; stroke-width: 1.0;"/><text fill="#000000" font-family="sans-serif" font-size="13" lengthAdjust="spacingAndGlyphs" textLength="8" x="173" y="180.0684">7</text><path d="M141.9908,91.6377 C154.076,93.1924 170.339,96.8604 182,105.5 C201.5227,119.9643 214.7027,145.2913 221.9061,162.4707 " fill="none" style="stroke: #383838; stroke-width: 1.0;"/><polygon fill="#383838" points="223.9501,167.5196,224.2803,157.6763,222.0737,162.885,216.865,160.6785,223.9501,167.5196" style="stroke: #383838; stroke-width: 1.0;"/><text fill="#000000" font-family="sans-serif" font-size="13" lengthAdjust="spacingAndGlyphs" textLength="8" x="173" y="96.0684">6</text><path d="M140.0404,230.3764 C151.5369,224.6629 167.9361,216.3318 182,208.5 C191.5863,203.1616 202.0719,196.8869 210.6556,191.632 " fill="none" style="stroke: #383838; stroke-width: 2.0;"/><polygon fill="#383838" points="215.2108,188.83,205.4492,190.1384,210.952,191.4497,209.6407,196.9524,215.2108,188.83" style="stroke: #383838; stroke-width: 1.0;"/><text fill="#000000" font-family="sans-serif" font-size="13" lengthAdjust="spacingAndGlyphs" textLength="8" x="173" y="205.0684">1</text><path d="M243.2574,57.0907 C261.3845,65.1863 292.1838,78.9413 312.1809,87.8721 " fill="none" style="stroke: #383838; stroke-width: 1.0;"/><polygon fill="#383838" points="316.77,89.9215,310.1835,82.5991,312.2046,87.8825,306.9212,89.9036,316.77,89.9215" style="stroke: #383838; stroke-width: 1.0;"/><text fill="#000000" font-family="sans-serif" font-size="13" lengthAdjust="spacingAndGlyphs" textLength="8" x="276" y="68.0684">2</text><path d="M245.0568,48.3029 C281.4656,43.4714 368.7517,31.8884 412.9275,26.0262 " fill="none" style="stroke: #383838; stroke-width: 1.0;"/><polygon fill="#383838" points="418.0948,25.3405,408.6468,22.5594,413.1383,25.9984,409.6993,30.4899,418.0948,25.3405" style="stroke: #383838; stroke-width: 1.0;"/><text fill="#000000" font-family="sans-serif" font-size="13" lengthAdjust="spacingAndGlyphs" textLength="8" x="327.5" y="32.0684">3</text><path d="M237.2817,192.4363 C255.7531,217.5431 298.6427,275.8396 319.5764,304.2932 " fill="none" style="stroke: #383838; stroke-width: 1.0;"/><polygon fill="#383838" points="322.7405,308.5939,320.6288,298.9741,319.7774,304.5665,314.185,303.7151,322.7405,308.5939" style="stroke: #383838; stroke-width: 1.0;"/><text fill="#000000" font-family="sans-serif" font-size="13" lengthAdjust="spacingAndGlyphs" textLength="8" x="276" y="242.0684">3</text><path d="M240.3154,170.8641 C258.8429,155.7543 294.7575,126.4647 315.5565,109.5025 " fill="none" style="stroke: #383838; stroke-width: 2.0;"/><polygon fill="#383838" points="319.5051,106.2822,310.0024,108.8703,315.6303,109.4422,315.0584,115.0701,319.5051,106.2822" style="stroke: #383838; stroke-width: 1.0;"/><text fill="#000000" font-family="sans-serif" font-size="13" lengthAdjust="spacingAndGlyphs" textLength="8" x="276" y="132.0684">2</text><path d="M241.545,189.2389 C260.0419,201.63 293.9149,224.3216 314.4026,238.0464 " fill="none" style="stroke: #383838; stroke-width: 1.0;"/><polygon fill="#383838" points="318.5609,240.8321,313.31,232.4998,314.4069,238.0492,308.8574,239.1462,318.5609,240.8321" style="stroke: #383838; stroke-width: 1.0;"/><text fill="#000000" font-family="sans-serif" font-size="13" lengthAdjust="spacingAndGlyphs" textLength="8" x="276" y="209.0684">2</text><path d="M244.3726,175.797 C267.2846,168.9904 310.9447,155.953 348,144.5 C370.7024,137.4831 396.5025,129.2857 414.9059,123.3999 " fill="none" style="stroke: #383838; stroke-width: 1.0;"/><polygon fill="#383838" points="419.8917,121.804,410.1007,120.7381,415.1297,123.3283,412.5395,128.3573,419.8917,121.804" style="stroke: #383838; stroke-width: 1.0;"/><text fill="#000000" font-family="sans-serif" font-size="13" lengthAdjust="spacingAndGlyphs" textLength="8" x="327.5" y="141.0684">5</text><path d="M347.9029,322.7782 C365.2018,325.1808 392.7199,329.0028 413.0836,331.8311 " fill="none" style="stroke: #383838; stroke-width: 1.0;"/><polygon fill="#383838" points="418.0961,332.5272,409.732,327.3271,413.1436,331.8393,408.6314,335.251,418.0961,332.5272" style="stroke: #383838; stroke-width: 1.0;"/><text fill="#000000" font-family="sans-serif" font-size="13" lengthAdjust="spacingAndGlyphs" textLength="8" x="379" y="323.0684">1</text><path d="M344.3131,87.7206 C363.0662,74.8713 398.1355,50.8424 420.0715,35.8121 " fill="none" style="stroke: #383838; stroke-width: 1.0;"/><polygon fill="#383838" points="424.2749,32.932,414.5896,34.7194,420.1503,35.7582,419.1115,41.3189,424.2749,32.932" style="stroke: #383838; stroke-width: 1.0;"/><text fill="#000000" font-family="sans-serif" font-size="13" lengthAdjust="spacingAndGlyphs" textLength="8" x="379" y="56.0684">1</text><path d="M346.7971,101.997 C355.7712,104.996 367.3962,108.496 378,110.5 C389.3072,112.6369 401.9538,113.8608 412.8249,114.5617 " fill="none" style="stroke: #383838; stroke-width: 2.0;"/><polygon fill="#383838" points="418.0052,114.8655,409.2549,110.3452,413.0138,114.5726,408.7864,118.3315,418.0052,114.8655" style="stroke: #383838; stroke-width: 1.0;"/><text fill="#000000" font-family="sans-serif" font-size="13" lengthAdjust="spacingAndGlyphs" textLength="8" x="379" y="107.0684">2</text><path d="M348.375,248.25 C365.5842,246.9752 392.5435,244.9783 412.6809,243.4866 " fill="none" style="stroke: #383838; stroke-width: 1.0;"/><polygon fill="#383838" points="417.9042,243.0997,408.6333,239.7756,412.9179,243.4691,409.2243,247.7537,417.9042,243.0997" style="stroke: #383838; stroke-width: 1.0;"/><text fill="#000000" font-family="sans-serif" font-size="13" lengthAdjust="spacingAndGlyphs" textLength="8" x="379" y="242.0684">3</text><path d="M460.6423,338.414 C472.5424,339.5834 487.6493,340.2823 501,338.5 C509.9745,337.3019 519.6014,334.9786 528.0751,332.5637 " fill="none" style="stroke: #383838; stroke-width: 1.0;"/><polygon fill="#383838" points="533.186,331.0574,523.4223,329.7647,528.3899,332.4708,525.6838,337.4384,533.186,331.0574" style="stroke: #383838; stroke-width: 1.0;"/><text fill="#000000" font-family="sans-serif" font-size="13" lengthAdjust="spacingAndGlyphs" textLength="8" x="492" y="335.0684">3</text><path d="M456.3968,344.9037 C474.2901,354.2813 503.6725,368.0511 531,373.5 C568.2064,380.9188 612.2545,375.7262 639.5413,370.9243 " fill="none" style="stroke: #383838; stroke-width: 1.0;"/><polygon fill="#383838" points="644.7682,369.973,635.1974,367.6494,639.849,370.8684,636.63,375.5201,644.7682,369.973" style="stroke: #383838; stroke-width: 1.0;"/><text fill="#000000" font-family="sans-serif" font-size="13" lengthAdjust="spacingAndGlyphs" textLength="8" x="548.5" y="370.0684">8</text><path d="M460.3564,26.0991 C501.7074,33.2349 593.9955,49.1607 639.3378,56.9853 " fill="none" style="stroke: #383838; stroke-width: 1.0;"/><polygon fill="#383838" points="644.3654,57.8529,636.1767,52.3806,639.4382,57.0026,634.8163,60.2641,644.3654,57.8529" style="stroke: #383838; stroke-width: 1.0;"/><text fill="#000000" font-family="sans-serif" font-size="13" lengthAdjust="spacingAndGlyphs" textLength="8" x="548.5" y="36.0684">6</text><path d="M457.1563,124.25 C476.8925,134.0308 508.8849,149.8855 530.3002,160.4983 " fill="none" style="stroke: #383838; stroke-width: 1.0;"/><polygon fill="#383838" points="534.9677,162.8114,528.6799,155.2309,530.4877,160.5911,525.1275,162.3989,534.9677,162.8114" style="stroke: #383838; stroke-width: 1.0;"/><text fill="#000000" font-family="sans-serif" font-size="13" lengthAdjust="spacingAndGlyphs" textLength="8" x="492" y="138.0684">2</text><path d="M459.9178,110.6006 C469.3216,108.5859 480.6646,106.4942 491,105.5 C502.4229,104.4012 515.0881,104.5768 525.9417,105.1506 " fill="none" style="stroke: #383838; stroke-width: 2.0;"/><polygon fill="#383838" points="531.111,105.4605,522.3666,100.929,526.12,105.1612,521.8877,108.9146,531.111,105.4605" style="stroke: #383838; stroke-width: 1.0;"/><text fill="#000000" font-family="sans-serif" font-size="13" lengthAdjust="spacingAndGlyphs" textLength="8" x="492" y="101.0684">1</text><path d="M455.6901,231.4707 C475.7449,219.0474 509.9379,197.8659 531.8581,184.287 " fill="none" style="stroke: #383838; stroke-width: 1.0;"/><polygon fill="#383838" points="536.3399,181.5107,526.5825,182.8496,532.0893,184.1437,530.7953,189.6505,536.3399,181.5107" style="stroke: #383838; stroke-width: 1.0;"/><text fill="#000000" font-family="sans-serif" font-size="13" lengthAdjust="spacingAndGlyphs" textLength="8" x="492" y="200.0684">7</text><path d="M453.7814,252.9025 C464.0364,261.0138 478.2426,272.0949 491,281.5 C504.8224,291.6902 520.7152,302.7866 532.8819,311.1545 " fill="none" style="stroke: #383838; stroke-width: 1.0;"/><polygon fill="#383838" points="537.185,314.1072,532.0273,305.7168,533.0623,311.2782,527.5009,312.3132,537.185,314.1072" style="stroke: #383838; stroke-width: 1.0;"/><text fill="#000000" font-family="sans-serif" font-size="13" lengthAdjust="spacingAndGlyphs" textLength="8" x="492" y="278.0684">2</text><path d="M460.7615,238.8658 C502.2368,233.7273 593.8318,222.3792 639.1075,216.7699 " fill="none" style="stroke: #383838; stroke-width: 1.0;"/><polygon fill="#383838" points="644.1303,216.1476,634.7067,213.2847,639.1682,216.7625,635.6905,221.224,644.1303,216.1476" style="stroke: #383838; stroke-width: 1.0;"/><text fill="#000000" font-family="sans-serif" font-size="13" lengthAdjust="spacingAndGlyphs" textLength="8" x="548.5" y="221.0684">7</text><path d="M570.9069,100.0069 C590.2446,92.1349 620.726,79.7266 641.838,71.1323 " fill="none" style="stroke: #383838; stroke-width: 1.0;"/><polygon fill="#383838" points="646.7244,69.1432,636.8805,68.8317,642.0934,71.0283,639.8967,76.2413,646.7244,69.1432" style="stroke: #383838; stroke-width: 1.0;"/><text fill="#000000" font-family="sans-serif" font-size="13" lengthAdjust="spacingAndGlyphs" textLength="8" x="605" y="79.0684">4</text><path d="M561.5472,120.9596 C571.1172,134.6178 587.1399,155.9127 604,171.5 C616.3449,182.9129 632.0158,193.5677 644.449,201.29 " fill="none" style="stroke: #383838; stroke-width: 2.0;"/><polygon fill="#383838" points="648.8711,203.9984,643.2853,195.8867,644.6072,201.387,639.107,202.7089,648.8711,203.9984" style="stroke: #383838; stroke-width: 1.0;"/><text fill="#000000" font-family="sans-serif" font-size="13" lengthAdjust="spacingAndGlyphs" textLength="8" x="605" y="168.0684">2</text><path d="M570.3834,115.6772 C602.038,130.1788 669.9748,161.4264 727,188.5 C736.545,193.0317 747.044,198.111 756.0584,202.5016 " fill="none" style="stroke: #383838; stroke-width: 1.0;"/><polygon fill="#383838" points="760.8982,204.8621,754.5625,197.3216,756.4042,202.6703,751.0556,204.512,760.8982,204.8621" style="stroke: #383838; stroke-width: 1.0;"/><text fill="#000000" font-family="sans-serif" font-size="13" lengthAdjust="spacingAndGlyphs" textLength="16" x="657.5" y="146.0684">10</text><path d="M571.6689,331.4551 C590.906,338.4349 620.5938,349.2066 641.4113,356.7599 " fill="none" style="stroke: #383838; stroke-width: 1.0;"/><polygon fill="#383838" points="646.2371,358.5108,639.1412,351.6809,641.5369,356.8054,636.4125,359.2011,646.2371,358.5108" style="stroke: #383838; stroke-width: 1.0;"/><text fill="#000000" font-family="sans-serif" font-size="13" lengthAdjust="spacingAndGlyphs" textLength="8" x="605" y="340.0684">3</text><path d="M570.9386,316.4195 C597.0064,304.9009 646.0263,282.8921 687,262.5 C711.3901,250.3613 738.8851,235.4701 757.311,225.3111 " fill="none" style="stroke: #383838; stroke-width: 1.0;"/><polygon fill="#383838" points="761.7927,222.8349,751.9807,223.6864,757.4163,225.253,755.8497,230.6886,761.7927,222.8349" style="stroke: #383838; stroke-width: 1.0;"/><text fill="#000000" font-family="sans-serif" font-size="13" lengthAdjust="spacingAndGlyphs" textLength="16" x="657.5" y="259.0684">10</text><path d="M682.4392,70.4334 C695.9167,78.2274 714.5221,90.6063 727,105.5 C749.6962,132.5902 764.9713,171.3733 772.6651,194.3426 " fill="none" style="stroke: #383838; stroke-width: 1.0;"/><polygon fill="#383838" points="774.2805,199.2709,775.2779,189.4727,772.723,194.5197,767.6759,191.9648,774.2805,199.2709" style="stroke: #383838; stroke-width: 1.0;"/><text fill="#000000" font-family="sans-serif" font-size="13" lengthAdjust="spacingAndGlyphs" textLength="8" x="718" y="91.0684">7</text><path d="M687.0204,213.5 C705.3604,213.5 731.8074,213.5 751.5525,213.5 " fill="none" style="stroke: #383838; stroke-width: 2.0;"/><polygon fill="#383838" points="756.6748,213.5,747.6748,209.5,751.6748,213.5,747.6748,217.5,756.6748,213.5" style="stroke: #383838; stroke-width: 1.0;"/><text fill="#000000" font-family="sans-serif" font-size="13" lengthAdjust="spacingAndGlyphs" textLength="8" x="718" y="210.0684">5</text><path d="M683.0327,356.8655 C696.4873,349.5185 714.7708,337.88 727,323.5 C750.2414,296.1711 765.3371,256.5832 772.8491,233.1009 " fill="none" style="stroke: #383838; stroke-width: 1.0;"/><polygon fill="#383838" points="774.4236,228.0616,767.9214,235.459,772.9324,232.834,775.5573,237.845,774.4236,228.0616" style="stroke: #383838; stroke-width: 1.0;"/><text fill="#000000" font-family="sans-serif" font-size="13" lengthAdjust="spacingAndGlyphs" textLength="8" x="718" y="320.0684">7</text></g></svg>