<?xml version="1.0" encoding="UTF-8" standalone="no"?><svg xmlns="http://www.w3.org/2000/svg" xmlns:xlink="http://www.w3.org/1999/xlink" contentScriptType="application/ecmascript" contentStyleType="text/css" height="406px" preserveAspectRatio="none" style="width:503px;height:406px;" version="1.1" viewBox="0 0 503 406" width="503px" zoomAndPan="magnify"><defs><filter height="300%" id="faujh6v" width="300%" x="-1" y="-1"><feGaussianBlur result="blurOut" stdDeviation="2.0"/><feColorMatrix in="blurOut" result="blurOut2" type="matrix" values="0 0 0 0 0 0 0 0 0 0 0 0 0 0 0 0 0 0 .4 0"/><feOffset dx="4.0" dy="4.0" in="blurOut2" result="blurOut3"/><feBlend in="SourceGraphic" in2="blurOut3" mode="normal"/></filter></defs><g><ellipse cx="22.3584" cy="194.3519" fill="#7F7F7F" filter="url(#faujh6v)" rx="16.3584" ry="13.6867" style="stroke: #383838; stroke-width: 1.5;"/><text fill="#000000" font-family="sans-serif" font-size="14" lengthAdjust="spacingAndGlyphs" textLength="17" x="13.8584" y="199.0961">S1</text><ellipse cx="125.3584" cy="21.3519" fill="#F8F8F8" filter="url(#faujh6v)" rx="16.3584" ry="13.6867" style="stroke: #383838; stroke-width: 1.5;"/><text fill="#000000" font-family="sans-serif" font-size="14" lengthAdjust="spacingAndGlyphs" textLength="17" x="116.8584" y="26.0961">S2</text><ellipse cx="125.3584" cy="109.3519" fill="#7F7F7F" filter="url(#faujh6v)" rx="16.3584" ry="13.6867" style="stroke: #383838; stroke-width: 1.5;"/><text fill="#000000" font-family="sans-serif" font-size="14" lengthAdjust="spacingAndGlyphs" textLength="17" x="116.8584" y="114.0961">S3</text><ellipse cx="125.3584" cy="194.3519" fill="#F8F8F8" filter="url(#faujh6v)" rx="16.3584" ry="13.6867" style="stroke: #383838; stroke-width: 1.5;"/><text fill="#000000" font-family="sans-serif" font-size="14" lengthAdjust="spacingAndGlyphs" textLength="17" x="116.8584" y="199.0961">S4</text><ellipse cx="125.3584" cy="280.3519" fill="#F8F8F8" filter="url(#faujh6v)" rx="16.3584" ry="13.6867" style="stroke: #383838; stroke-width: 1.5;"/><text fill="#000000" font-family="sans-serif" font-size="14" lengthAdjust="spacingAndGlyphs" textLength="17" x="116.8584" y="285.0961">S5</text><ellipse cx="125.3584" cy="368.3519" fill="#F8F8F8" filter="url(#faujh6v)" rx="16.3584" ry="13.6867" style="stroke: #383838; stroke-width: 1.5;"/><text fill="#000000" font-family="sans-serif" font-size="14" lengthAdjust="spacingAndGlyphs" textLength="17" x="116.8584" y="373.0961">S6</text><ellipse cx="241.3584" cy="52.3519" fill="#F8F8F8" filter="url(#faujh6v)" rx="16.3584" ry="13.6867" style="stroke: #383838; stroke-width: 1.5;"/><text fill="#000000" font-family="sans-serif" font-size="14" lengthAdjust="spacingAndGlyphs" textLength="17" x="232.8584" y="57.0961">S7</text><ellipse cx="241.3584" cy="140.3519" fill="#7F7F7F" filter="url(#faujh6v)" rx="16.3584" ry="13.6867" style="stroke: #383838; stroke-width: 1.5;"/><text fill="#000000" font-family="sans-serif" font-size="14" lengthAdjust="spacingAndGlyphs" textLength="17" x="232.8584" y="145.0961">S8</text><ellipse cx="241.3584" cy="248.3519" fill="#F8F8F8" filter="url(#faujh6v)" rx="16.3584" ry="13.6867" style="stroke: #383838; stroke-width: 1.5;"/><text fill="#000000" font-family="sans-serif" font-size="14" lengthAdjust="spacingAndGlyphs" textLength="17" x="232.8584" y="253.0961">S9</text><ellipse cx="241.3848" cy="337.3242" fill="#F8F8F8" filter="url(#faujh6v)" rx="21.3848" ry="14.659" style="stroke: #383838; stroke-width: 1.5;"/><text fill="#000000" font-family="sans-serif" font-size="14" lengthAdjust="spacingAndGlyphs" textLength="26" x="228.3848" y="342.0683">S10</text><ellipse cx="362.3848" cy="109.3242" fill="#F8F8F8" filter="url(#faujh6v)" rx="21.3848" ry="14.659" style="stroke: #383838; stroke-width: 1.5;"/><text fill="#000000" font-family="sans-serif" font-size="14" lengthAdjust="spacingAndGlyphs" textLength="26" x="349.3848" y="114.0683">S11</text><ellipse cx="362.3848" cy="185.3242" fill="#7F7F7F" filter="url(#faujh6v)" rx="21.3848" ry="14.659" style="stroke: #383838; stroke-width: 1.5;"/><text fill="#000000" font-family="sans-serif" font-size="14" lengthAdjust="spacingAndGlyphs" textLength="26" x="349.3848" y="190.0683">S12</text><ellipse cx="362.3848" cy="280.3242" fill="#F8F8F8" filter="url(#faujh6v)" rx="21.3848" ry="14.659" style="stroke: #383838; stroke-width: 1.5;"/><text fill="#000000" font-family="sans-serif" font-size="14" lengthAdjust="spacingAndGlyphs" textLength="26" x="349.3848" y="285.0683">S13</text><ellipse cx="475.3848" cy="185.3242" fill="#7F7F7F" filter="url(#faujh6v)" rx="21.3848" ry="14.659" style="stroke: #383838; stroke-width: 1.5;"/><text fill="#000000" font-family="sans-serif" font-size="14" lengthAdjust="spacingAndGlyphs" textLength="26" x="462.3848" y="190.0683">S14</text><path d="M29.7428,182.0001 C47.798,151.6743 94.835,72.6704 115.5074,37.9489 " fill="none" style="stroke: #383838; stroke-width: 1.0;"/><polygon fill="#383838" points="118.1274,33.5483,110.0863,39.2352,115.5696,37.8445,116.9603,43.3278,118.1274,33.5483" style="stroke: #383838; stroke-width: 1.0;"/><text fill="#000000" font-family="sans-serif" font-size="13" lengthAdjust="spacingAndGlyphs" textLength="8" x="70" y="99.7336">2</text><path d="M34.3154,184.4146 C52.942,169.0431 89.1421,139.1692 109.8889,122.0481 " fill="none" style="stroke: #383838; stroke-width: 2.0;"/><polygon fill="#383838" points="113.8224,118.802,104.3349,121.4452,109.966,121.9844,109.4268,127.6155,113.8224,118.802" style="stroke: #383838; stroke-width: 1.0;"/><text fill="#000000" font-family="sans-serif" font-size="13" lengthAdjust="spacingAndGlyphs" textLength="8" x="70" y="145.7336">2</text><path d="M39.0487,194.1652 C56.6179,194.1652 84.4624,194.1652 103.7842,194.1652 " fill="none" style="stroke: #383838; stroke-width: 1.0;"/><polygon fill="#383838" points="108.9923,194.1652,99.9923,190.1652,103.9923,194.1652,99.9923,198.1652,108.9923,194.1652" style="stroke: #383838; stroke-width: 1.0;"/><text fill="#000000" font-family="sans-serif" font-size="13" lengthAdjust="spacingAndGlyphs" textLength="8" x="70" y="190.7336">2</text><path d="M34.3154,204.0305 C52.942,219.5828 89.1421,249.8081 109.8889,267.1306 " fill="none" style="stroke: #383838; stroke-width: 1.0;"/><polygon fill="#383838" points="113.8224,270.4149,109.4776,261.5762,109.9844,267.2103,104.3503,267.717,113.8224,270.4149" style="stroke: #383838; stroke-width: 1.0;"/><text fill="#000000" font-family="sans-serif" font-size="13" lengthAdjust="spacingAndGlyphs" textLength="8" x="70" y="231.7336">2</text><path d="M29.7428,206.4005 C47.798,236.9016 94.835,316.3622 115.5074,351.2844 " fill="none" style="stroke: #383838; stroke-width: 1.0;"/><polygon fill="#383838" points="118.1274,355.7105,116.985,345.9281,115.5804,351.4078,110.1007,350.0033,118.1274,355.7105" style="stroke: #383838; stroke-width: 1.0;"/><text fill="#000000" font-family="sans-serif" font-size="13" lengthAdjust="spacingAndGlyphs" textLength="8" x="70" y="272.7336">2</text><path d="M141.8144,23.814 C154.942,26.0982 173.8055,29.7257 190,34.1652 C200.5787,37.0652 212.1259,41.0252 221.6003,44.4926 " fill="none" style="stroke: #383838; stroke-width: 1.0;"/><polygon fill="#383838" points="226.3497,46.2527,219.3005,39.3746,221.6613,44.5153,216.5206,46.8761,226.3497,46.2527" style="stroke: #383838; stroke-width: 1.0;"/><text fill="#000000" font-family="sans-serif" font-size="13" lengthAdjust="spacingAndGlyphs" textLength="16" x="173" y="26.7336">10</text><path d="M139.7239,102.1759 C160.509,91.9625 199.2262,72.9376 222.451,61.5254 " fill="none" style="stroke: #383838; stroke-width: 1.0;"/><polygon fill="#383838" points="227.1598,59.2117,217.3182,59.5909,222.6723,61.4168,220.8464,66.7709,227.1598,59.2117" style="stroke: #383838; stroke-width: 1.0;"/><text fill="#000000" font-family="sans-serif" font-size="13" lengthAdjust="spacingAndGlyphs" textLength="16" x="173" y="75.7336">12</text><path d="M141.6293,113.4756 C162.2332,118.9818 197.9317,128.5219 220.6002,134.5799 " fill="none" style="stroke: #383838; stroke-width: 2.0;"/><polygon fill="#383838" points="225.5077,135.8914,217.8455,129.7035,220.6772,134.6006,215.7801,137.4323,225.5077,135.8914" style="stroke: #383838; stroke-width: 1.0;"/><text fill="#000000" font-family="sans-serif" font-size="13" lengthAdjust="spacingAndGlyphs" textLength="8" x="177" y="118.7336">5</text><path d="M140.1915,187.326 C161.0229,177.6287 199.1712,159.87 222.2446,149.1289 " fill="none" style="stroke: #383838; stroke-width: 1.0;"/><polygon fill="#383838" points="226.9278,146.9488,217.0804,147.121,222.395,149.0591,220.4569,154.3736,226.9278,146.9488" style="stroke: #383838; stroke-width: 1.0;"/><text fill="#000000" font-family="sans-serif" font-size="13" lengthAdjust="spacingAndGlyphs" textLength="8" x="177" y="162.7336">8</text><path d="M140.1915,201.0043 C161.0229,210.7017 199.1712,228.4604 222.2446,239.2015 " fill="none" style="stroke: #383838; stroke-width: 1.0;"/><polygon fill="#383838" points="226.9278,241.3816,220.4568,233.9569,222.3949,239.2714,217.0804,241.2095,226.9278,241.3816" style="stroke: #383838; stroke-width: 1.0;"/><text fill="#000000" font-family="sans-serif" font-size="13" lengthAdjust="spacingAndGlyphs" textLength="16" x="173" y="213.7336">14</text><path d="M141.5178,283.8734 C154.8046,286.2545 174.0355,288.0766 190,283.1652 C203.7421,278.9375 217.1058,269.6557 226.7751,261.7124 " fill="none" style="stroke: #383838; stroke-width: 1.0;"/><polygon fill="#383838" points="230.6833,258.4087,221.2278,261.1643,226.8649,261.6367,226.3926,267.2738,230.6833,258.4087" style="stroke: #383838; stroke-width: 1.0;"/><text fill="#000000" font-family="sans-serif" font-size="13" lengthAdjust="spacingAndGlyphs" textLength="8" x="177" y="279.7336">7</text><path d="M137.6543,289.3985 C146.7696,296.0373 159.7352,304.8888 172,311.1652 C186.4016,318.535 203.3978,324.9308 216.9777,329.5348 " fill="none" style="stroke: #383838; stroke-width: 1.0;"/><polygon fill="#383838" points="221.8151,331.1484,214.5434,324.5059,217.0721,329.5661,212.0118,332.0948,221.8151,331.1484" style="stroke: #383838; stroke-width: 1.0;"/><text fill="#000000" font-family="sans-serif" font-size="13" lengthAdjust="spacingAndGlyphs" textLength="16" x="173" y="307.7336">11</text><path d="M136.0256,378.7352 C148.8144,390.2322 171.0345,405.8802 190,397.1652 C208.4913,388.6681 222.8362,369.8924 231.6362,355.5915 " fill="none" style="stroke: #383838; stroke-width: 1.0;"/><polygon fill="#383838" points="234.406,350.9345,226.3674,356.625,231.8501,355.2318,233.2432,360.7145,234.406,350.9345" style="stroke: #383838; stroke-width: 1.0;"/><text fill="#000000" font-family="sans-serif" font-size="13" lengthAdjust="spacingAndGlyphs" textLength="8" x="177" y="393.7336">2</text><path d="M255.8554,58.9277 C276.6311,68.7145 315.2807,86.9214 339.9037,98.5206 " fill="none" style="stroke: #383838; stroke-width: 1.0;"/><polygon fill="#383838" points="344.6318,100.7479,338.1947,93.2938,340.1086,98.6171,334.7853,100.531,344.6318,100.7479" style="stroke: #383838; stroke-width: 1.0;"/><text fill="#000000" font-family="sans-serif" font-size="13" lengthAdjust="spacingAndGlyphs" textLength="8" x="298" y="74.7336">3</text><path d="M257.3186,136.1125 C277.6525,130.903 313.2009,121.7955 337.2835,115.6256 " fill="none" style="stroke: #383838; stroke-width: 1.0;"/><polygon fill="#383838" points="342.2388,114.3561,332.5276,112.7151,337.3953,115.5971,334.5132,120.4647,342.2388,114.3561" style="stroke: #383838; stroke-width: 1.0;"/><text fill="#000000" font-family="sans-serif" font-size="13" lengthAdjust="spacingAndGlyphs" textLength="16" x="294" y="119.7336">15</text><path d="M256.8247,145.8645 C277.3666,153.504 314.0517,167.1472 338.3337,176.1777 " fill="none" style="stroke: #383838; stroke-width: 2.0;"/><polygon fill="#383838" points="343.3167,178.0309,336.2756,171.1444,338.6303,176.2879,333.4869,178.6426,343.3167,178.0309" style="stroke: #383838; stroke-width: 1.0;"/><text fill="#000000" font-family="sans-serif" font-size="13" lengthAdjust="spacingAndGlyphs" textLength="8" x="298" y="156.7336">6</text><path d="M255.8554,240.6908 C276.8659,229.7515 316.1564,209.2945 340.7329,196.4984 " fill="none" style="stroke: #383838; stroke-width: 1.0;"/><polygon fill="#383838" points="345.4423,194.0465,335.6123,194.6551,341.0075,196.3556,339.3069,201.7508,345.4423,194.0465" style="stroke: #383838; stroke-width: 1.0;"/><text fill="#000000" font-family="sans-serif" font-size="13" lengthAdjust="spacingAndGlyphs" textLength="16" x="294" y="209.7336">20</text><path d="M252.3167,258.4087 C262.0837,266.9006 277.2947,278.3335 293,283.1652 C307.063,287.4916 323.4809,287.0208 336.8275,285.3388 " fill="none" style="stroke: #383838; stroke-width: 1.0;"/><polygon fill="#383838" points="341.9674,284.6134,332.4967,281.9106,337.0165,285.3122,333.6148,289.8321,341.9674,284.6134" style="stroke: #383838; stroke-width: 1.0;"/><text fill="#000000" font-family="sans-serif" font-size="13" lengthAdjust="spacingAndGlyphs" textLength="16" x="294" y="279.7336">13</text><path d="M261.4237,331.234 C275.5696,326.7278 294.8402,319.984 311,312.1652 C321.9117,306.8856 333.4274,299.8808 342.7958,293.7711 " fill="none" style="stroke: #383838; stroke-width: 1.0;"/><polygon fill="#383838" points="347.2103,290.8552,337.4961,292.4781,343.0383,293.611,341.9054,299.1533,347.2103,290.8552" style="stroke: #383838; stroke-width: 1.0;"/><text fill="#000000" font-family="sans-serif" font-size="13" lengthAdjust="spacingAndGlyphs" textLength="16" x="294" y="308.7336">18</text><path d="M377.7397,119.4149 C397.9586,133.0134 433.6777,157.0369 455.8876,171.9745 " fill="none" style="stroke: #383838; stroke-width: 1.0;"/><polygon fill="#383838" points="460.1409,174.8351,454.9051,166.4932,455.992,172.0447,450.4405,173.1316,460.1409,174.8351" style="stroke: #383838; stroke-width: 1.0;"/><text fill="#000000" font-family="sans-serif" font-size="13" lengthAdjust="spacingAndGlyphs" textLength="8" x="415" y="141.7336">5</text><path d="M384.0204,185.1652 C402.3604,185.1652 428.8074,185.1652 448.5525,185.1652 " fill="none" style="stroke: #383838; stroke-width: 2.0;"/><polygon fill="#383838" points="453.6748,185.1652,444.6748,181.1652,448.6748,185.1652,444.6748,189.1652,453.6748,185.1652" style="stroke: #383838; stroke-width: 1.0;"/><text fill="#000000" font-family="sans-serif" font-size="13" lengthAdjust="spacingAndGlyphs" textLength="8" x="415" y="181.7336">5</text><path d="M376.356,268.5163 C396.884,251.2583 435.3675,218.9049 457.8748,199.9828 " fill="none" style="stroke: #383838; stroke-width: 1.0;"/><polygon fill="#383838" points="461.8836,196.6126,452.4207,199.3426,458.0565,199.8302,457.5688,205.466,461.8836,196.6126" style="stroke: #383838; stroke-width: 1.0;"/><text fill="#000000" font-family="sans-serif" font-size="13" lengthAdjust="spacingAndGlyphs" textLength="8" x="415" y="226.7336">5</text></g></svg>