<?xml version="1.0" encoding="UTF-8" standalone="no"?><svg xmlns="http://www.w3.org/2000/svg" xmlns:xlink="http://www.w3.org/1999/xlink" contentScriptType="application/ecmascript" contentStyleType="text/css" height="215px" preserveAspectRatio="none" style="width:489px;height:215px;" version="1.1" viewBox="0 0 489 215" width="489px" zoomAndPan="magnify"><defs><filter height="300%" id="f6rax1n" width="300%" x="-1" y="-1"><feGaussianBlur result="blurOut" stdDeviation="2.0"/><feColorMatrix in="blurOut" result="blurOut2" type="matrix" values="0 0 0 0 0 0 0 0 0 0 0 0 0 0 0 0 0 0 .4 0"/><feOffset dx="4.0" dy="4.0" in="blurOut2" result="blurOut3"/><feBlend in="SourceGraphic" in2="blurOut3" mode="normal"/></filter></defs><g><ellipse cx="22.3584" cy="103.6867" fill="#7F7F7F" filter="url(#f6rax1n)" rx="16.3584" ry="13.6867" style="stroke: #383838; stroke-width: 1.5;"/><text fill="#000000" font-family="sans-serif" font-size="14" lengthAdjust="spacingAndGlyphs" textLength="17" x="13.8584" y="108.4309">S1</text><ellipse cx="244.3584" cy="21.6867" fill="#F8F8F8" filter="url(#f6rax1n)" rx="16.3584" ry="13.6867" style="stroke: #383838; stroke-width: 1.5;"/><text fill="#000000" font-family="sans-serif" font-size="14" lengthAdjust="spacingAndGlyphs" textLength="17" x="235.8584" y="26.4309">S2</text><ellipse cx="133.3584" cy="103.6867" fill="#7F7F7F" filter="url(#f6rax1n)" rx="16.3584" ry="13.6867" style="stroke: #383838; stroke-width: 1.5;"/><text fill="#000000" font-family="sans-serif" font-size="14" lengthAdjust="spacingAndGlyphs" textLength="17" x="124.8584" y="108.4309">S3</text><ellipse cx="133.3584" cy="182.6867" fill="#F8F8F8" filter="url(#f6rax1n)" rx="16.3584" ry="13.6867" style="stroke: #383838; stroke-width: 1.5;"/><text fill="#000000" font-family="sans-serif" font-size="14" lengthAdjust="spacingAndGlyphs" textLength="17" x="124.8584" y="187.4309">S4</text><ellipse cx="355.3584" cy="103.6867" fill="#7F7F7F" filter="url(#f6rax1n)" rx="16.3584" ry="13.6867" style="stroke: #383838; stroke-width: 1.5;"/><text fill="#000000" font-family="sans-serif" font-size="14" lengthAdjust="spacingAndGlyphs" textLength="17" x="346.8584" y="108.4309">S6</text><ellipse cx="466.3584" cy="103.6867" fill="#7F7F7F" filter="url(#f6rax1n)" rx="16.3584" ry="13.6867" style="stroke: #383838; stroke-width: 1.5;"/><text fill="#000000" font-family="sans-serif" font-size="14" lengthAdjust="spacingAndGlyphs" textLength="17" x="457.8584" y="108.4309">S7</text><ellipse cx="244.3584" cy="194.6867" fill="#7F7F7F" filter="url(#f6rax1n)" rx="16.3584" ry="13.6867" style="stroke: #383838; stroke-width: 1.5;"/><text fill="#000000" font-family="sans-serif" font-size="14" lengthAdjust="spacingAndGlyphs" textLength="17" x="235.8584" y="199.4309">S5</text><path d="M36.1362,95.6645 C45.2995,90.5251 57.7179,83.8008 69,78.5 C117.1803,55.863 128.9074,48.444 180,33.5 C194.0613,29.3872 210.2755,26.3779 222.9295,24.4015 " fill="none" style="stroke: #383838; stroke-width: 1.0; stroke-dasharray: 7.0,7.0;"/><polygon fill="#383838" points="228.118,23.6175,218.6213,21.0073,223.1741,24.3646,219.8168,28.9174,228.118,23.6175" style="stroke: #383838; stroke-width: 1.0;"/><text fill="#000000" font-family="sans-serif" font-size="13" lengthAdjust="spacingAndGlyphs" textLength="16" x="125.5" y="40.0684">15</text><path d="M39.3585,103.5 C58.7034,103.5 90.4825,103.5 111.6951,103.5 " fill="none" style="stroke: #383838; stroke-width: 2.0;"/><polygon fill="#383838" points="116.8465,103.5,107.8465,99.5,111.8465,103.5,107.8465,107.5,116.8465,103.5" style="stroke: #383838; stroke-width: 1.0;"/><text fill="#000000" font-family="sans-serif" font-size="13" lengthAdjust="spacingAndGlyphs" textLength="16" x="70" y="100.0684">14</text><path d="M35.2331,112.5623 C55.3064,126.8487 94.3182,154.6139 116.6764,170.5264 " fill="none" style="stroke: #383838; stroke-width: 1.0; stroke-dasharray: 7.0,7.0;"/><polygon fill="#383838" points="120.9154,173.5434,115.9022,165.0659,116.8418,170.6442,111.2635,171.5837,120.9154,173.5434" style="stroke: #383838; stroke-width: 1.0;"/><text fill="#000000" font-family="sans-serif" font-size="13" lengthAdjust="spacingAndGlyphs" textLength="8" x="74" y="134.0684">9</text><path d="M256.8031,30.5887 C276.806,45.3657 316.4007,74.6158 338.8842,91.2252 " fill="none" style="stroke: #383838; stroke-width: 1.0; stroke-dasharray: 7.0,7.0;"/><polygon fill="#383838" points="343.1418,94.3706,338.2794,85.8057,339.1201,91.3998,333.5261,92.2404,343.1418,94.3706" style="stroke: #383838; stroke-width: 1.0;"/><text fill="#000000" font-family="sans-serif" font-size="13" lengthAdjust="spacingAndGlyphs" textLength="16" x="292" y="55.0684">20</text><path d="M260.882,23.6175 C274.0479,25.5407 292.9299,28.7997 309,33.5 C360.0926,48.444 371.8197,55.863 420,78.5 C429.5193,82.9725 439.8475,88.4585 448.3469,93.1508 " fill="none" style="stroke: #383838; stroke-width: 1.0; stroke-dasharray: 7.0,7.0;"/><polygon fill="#383838" points="452.8638,95.6645,446.9446,87.7928,448.4948,93.2331,443.0544,94.7833,452.8638,95.6645" style="stroke: #383838; stroke-width: 1.0;"/><text fill="#000000" font-family="sans-serif" font-size="13" lengthAdjust="spacingAndGlyphs" textLength="16" x="347.5" y="40.0684">37</text><path d="M145.8031,94.4113 C165.806,79.6343 205.4007,50.3842 227.8842,33.7748 " fill="none" style="stroke: #383838; stroke-width: 1.0; stroke-dasharray: 7.0,7.0;"/><polygon fill="#383838" points="232.1418,30.6294,222.5261,32.7596,228.1201,33.6002,227.2794,39.1943,232.1418,30.6294" style="stroke: #383838; stroke-width: 1.0;"/><text fill="#000000" font-family="sans-serif" font-size="13" lengthAdjust="spacingAndGlyphs" textLength="8" x="185" y="55.0684">5</text><path d="M144.2887,114.0918 C153.5279,123.011 167.3116,135.9627 180,146.5 C195.6293,159.4795 214.3358,173.2158 227.5684,182.6528 " fill="none" style="stroke: #383838; stroke-width: 2.0;"/><polygon fill="#383838" points="231.8338,185.681,226.8107,177.2094,227.7568,182.7866,222.1796,183.7326,231.8338,185.681" style="stroke: #383838; stroke-width: 1.0;"/><text fill="#000000" font-family="sans-serif" font-size="13" lengthAdjust="spacingAndGlyphs" textLength="16" x="181" y="143.0684">17</text><path d="M150.1861,103.5 C189.8175,103.5 289.5854,103.5 333.8127,103.5 " fill="none" style="stroke: #383838; stroke-width: 1.0; stroke-dasharray: 7.0,7.0;"/><polygon fill="#383838" points="338.9231,103.5,329.9231,99.5,333.9231,103.5,329.9231,107.5,338.9231,103.5" style="stroke: #383838; stroke-width: 1.0;"/><text fill="#000000" font-family="sans-serif" font-size="13" lengthAdjust="spacingAndGlyphs" textLength="16" x="236.5" y="100.0684">30</text><path d="M147.2104,190.5598 C156.1998,195.3647 168.3963,201.0013 180,203.5 C194.6366,206.6518 211.3894,204.1348 224.1526,200.9703 " fill="none" style="stroke: #383838; stroke-width: 1.0; stroke-dasharray: 7.0,7.0;"/><polygon fill="#383838" points="229.0102,199.6876,219.2872,198.118,224.1759,200.9642,221.3297,205.8529,229.0102,199.6876" style="stroke: #383838; stroke-width: 1.0;"/><text fill="#000000" font-family="sans-serif" font-size="13" lengthAdjust="spacingAndGlyphs" textLength="16" x="181" y="200.0684">23</text><path d="M257.1662,185.681 C270.3956,176.331 291.6039,160.9468 309,146.5 C320.1024,137.2799 332.0433,126.2112 341.0446,117.613 " fill="none" style="stroke: #383838; stroke-width: 2.0;"/><polygon fill="#383838" points="344.7113,114.0918,335.4492,117.4403,341.1048,117.555,340.9902,123.2107,344.7113,114.0918" style="stroke: #383838; stroke-width: 1.0;"/><text fill="#000000" font-family="sans-serif" font-size="13" lengthAdjust="spacingAndGlyphs" textLength="8" x="296" y="143.0684">3</text><path d="M260.0751,190.0428 C284.3688,182.914 332.5857,168.0539 372,151.5 C399.2141,140.0701 429.4259,124.1185 448.1943,113.7992 " fill="none" style="stroke: #383838; stroke-width: 1.0; stroke-dasharray: 7.0,7.0;"/><polygon fill="#383838" points="452.7106,111.3032,442.8987,112.1557,448.3345,113.7218,446.7684,119.1575,452.7106,111.3032" style="stroke: #383838; stroke-width: 1.0;"/><text fill="#000000" font-family="sans-serif" font-size="13" lengthAdjust="spacingAndGlyphs" textLength="16" x="347.5" y="148.0684">20</text><path d="M372.3585,103.5 C391.7034,103.5 423.4825,103.5 444.6951,103.5 " fill="none" style="stroke: #383838; stroke-width: 2.0;"/><polygon fill="#383838" points="449.8465,103.5,440.8465,99.5,444.8465,103.5,440.8465,107.5,449.8465,103.5" style="stroke: #383838; stroke-width: 1.0;"/><text fill="#000000" font-family="sans-serif" font-size="13" lengthAdjust="spacingAndGlyphs" textLength="16" x="403" y="100.0684">16</text></g></svg>