<?xml version="1.0" encoding="UTF-8" standalone="no"?><svg xmlns="http://www.w3.org/2000/svg" xmlns:xlink="http://www.w3.org/1999/xlink" contentScriptType="application/ecmascript" contentStyleType="text/css" height="192px" preserveAspectRatio="none" style="width:362px;height:192px;" version="1.1" viewBox="0 0 362 192" width="362px" zoomAndPan="magnify"><defs><filter height="300%" id="fwbv7t1" width="300%" x="-1" y="-1"><feGaussianBlur result="blurOut" stdDeviation="2.0"/><feColorMatrix in="blurOut" result="blurOut2" type="matrix" values="0 0 0 0 0 0 0 0 0 0 0 0 0 0 0 0 0 0 .4 0"/><feOffset dx="4.0" dy="4.0" in="blurOut2" result="blurOut3"/><feBlend in="SourceGraphic" in2="blurOut3" mode="normal"/></filter></defs><g><ellipse cx="22.3584" cy="87.6867" fill="#7F7F7F" filter="url(#fwbv7t1)" rx="16.3584" ry="13.6867" style="stroke: #383838; stroke-width: 1.5;"/><text fill="#000000" font-family="sans-serif" font-size="14" lengthAdjust="spacingAndGlyphs" textLength="17" x="13.8584" y="92.4309">S1</text><ellipse cx="125.3584" cy="87.6867" fill="#7F7F7F" filter="url(#fwbv7t1)" rx="16.3584" ry="13.6867" style="stroke: #383838; stroke-width: 1.5;"/><text fill="#000000" font-family="sans-serif" font-size="14" lengthAdjust="spacingAndGlyphs" textLength="17" x="116.8584" y="92.4309">S2</text><ellipse cx="228.3584" cy="21.6867" fill="#F8F8F8" filter="url(#fwbv7t1)" rx="16.3584" ry="13.6867" style="stroke: #383838; stroke-width: 1.5;"/><text fill="#000000" font-family="sans-serif" font-size="14" lengthAdjust="spacingAndGlyphs" textLength="17" x="219.8584" y="26.4309">S3</text><ellipse cx="339.3584" cy="87.6867" fill="#7F7F7F" filter="url(#fwbv7t1)" rx="16.3584" ry="13.6867" style="stroke: #383838; stroke-width: 1.5;"/><text fill="#000000" font-family="sans-serif" font-size="14" lengthAdjust="spacingAndGlyphs" textLength="17" x="330.8584" y="92.4309">S5</text><ellipse cx="228.3584" cy="171.6867" fill="#F8F8F8" filter="url(#fwbv7t1)" rx="16.3584" ry="13.6867" style="stroke: #383838; stroke-width: 1.5;"/><text fill="#000000" font-family="sans-serif" font-size="14" lengthAdjust="spacingAndGlyphs" textLength="17" x="219.8584" y="176.4309">S4</text><path d="M39.0487,87.5 C56.6179,87.5 84.4624,87.5 103.7842,87.5 " fill="none" style="stroke: #383838; stroke-width: 2.0;"/><polygon fill="#383838" points="108.9923,87.5,99.9923,83.5,103.9923,87.5,99.9923,91.5,108.9923,87.5" style="stroke: #383838; stroke-width: 1.0;"/><text fill="#000000" font-family="sans-serif" font-size="13" lengthAdjust="spacingAndGlyphs" textLength="8" x="70" y="84.0684">6</text><path d="M138.545,79.1411 C156.8638,67.4028 190.2642,46.0006 210.8073,32.8371 " fill="none" style="stroke: #383838; stroke-width: 1.0; stroke-dasharray: 7.0,7.0;"/><polygon fill="#383838" points="215.2356,29.9995,205.4998,31.4872,211.0257,32.6971,209.8159,38.223,215.2356,29.9995" style="stroke: #383838; stroke-width: 1.0;"/><text fill="#000000" font-family="sans-serif" font-size="13" lengthAdjust="spacingAndGlyphs" textLength="8" x="173" y="50.0684">2</text><path d="M242.1108,29.5929 C262.1081,41.4832 299.4516,63.6874 321.6331,76.8765 " fill="none" style="stroke: #383838; stroke-width: 1.0; stroke-dasharray: 7.0,7.0;"/><polygon fill="#383838" points="326.1246,79.5471,320.4331,71.5092,321.8269,76.9917,316.3445,78.3855,326.1246,79.5471" style="stroke: #383838; stroke-width: 1.0;"/><text fill="#000000" font-family="sans-serif" font-size="13" lengthAdjust="spacingAndGlyphs" textLength="16" x="276" y="48.0684">10</text><path d="M136.2562,98.1312 C145.4756,107.0743 159.2484,120.0392 172,130.5 C184.7389,140.9504 199.8822,151.8643 211.2833,159.8022 " fill="none" style="stroke: #383838; stroke-width: 1.0; stroke-dasharray: 7.0,7.0;"/><polygon fill="#383838" points="215.6114,162.7979,210.4877,154.3867,211.5002,159.9522,205.9347,160.9647,215.6114,162.7979" style="stroke: #383838; stroke-width: 1.0;"/><text fill="#000000" font-family="sans-serif" font-size="13" lengthAdjust="spacingAndGlyphs" textLength="8" x="173" y="127.0684">8</text><path d="M242.3175,163.6989 C255.7138,155.9115 276.3903,143.2919 293,130.5 C304.4338,121.6943 316.3664,110.615 325.2807,101.9082 " fill="none" style="stroke: #383838; stroke-width: 1.0; stroke-dasharray: 7.0,7.0;"/><polygon fill="#383838" points="328.9062,98.3354,319.6881,101.8034,325.3448,101.8449,325.3033,107.5016,328.9062,98.3354" style="stroke: #383838; stroke-width: 1.0;"/><text fill="#000000" font-family="sans-serif" font-size="13" lengthAdjust="spacingAndGlyphs" textLength="8" x="280" y="127.0684">3</text><path d="M142.2922,87.5 C180.6555,87.5 274.713,87.5 317.5754,87.5 " fill="none" style="stroke: #383838; stroke-width: 2.0;"/><polygon fill="#383838" points="322.7858,87.5,313.7858,83.5,317.7858,87.5,313.7858,91.5,322.7858,87.5" style="stroke: #383838; stroke-width: 1.0;"/><text fill="#000000" font-family="sans-serif" font-size="13" lengthAdjust="spacingAndGlyphs" textLength="16" x="220.5" y="84.0684">10</text></g></svg>